<?xml version="1.0" encoding="utf-8"?>
<!DOCTYPE svg PUBLIC "-//W3C//DTD SVG 1.0//EN" "http://www.w3.org/TR/2001/REC-SVG-20010904/DTD/svg10.dtd">
<svg version="1.0" xmlns="http://www.w3.org/2000/svg" width="786px" height="630px" viewBox="0 0 786 630" preserveAspectRatio="xMidYMid meet">
 <g fill="#009485">
  <path d="M650.4 600 c6.2 -55.9 5.8 -134 -1 -187 -11.9 -93.9 -42.2 -169.2 -85.9 -213.3 -35.2 -35.7 -78.2 -57.4 -132 -66.8 -17.6 -3.1 -54.6 -3.4 -73 -0.5 -51.8 8 -95.9 29.9 -133.8 66.5 -5.4 5.2 -9.6 9.9 -9.4 10.4 0.1 0.5 4.7 2.3 10.2 4.1 52.9 17.4 97.1 62.5 116.3 118.6 8.6 25.2 12.1 45.9 12.9 76.5 0.6 23.5 -0.5 36 -4.8 52.7 -10.8 42.7 -37 79.5 -74.3 104.3 -36.1 24 -76.5 35.5 -125 35.5 l-19.2 0 -5.5 -6.2 c-26.7 -30.5 -51 -73.9 -64.9 -116.1 -12.2 -36.8 -17.2 -69.2 -17.3 -113.2 -0.1 -27.4 1 -39.1 6.4 -65.7 13.8 -68.3 48.8 -131.8 99.7 -180.9 48.5 -46.8 108.3 -78.5 172.6 -91.4 27.5 -5.6 40.7 -6.8 70.6 -6.8 29.4 0 43 1.2 68.5 6.3 108.8 21.8 201.1 94.6 248.4 196 34 72.9 41.7 158.2 21.1 235.5 -13.1 49.1 -37.2 95.9 -69.1 134 -3.6 4.4 -7.9 9.1 -9.4 10.5 l-2.7 2.5 0.6 -5.5z m-421.9 -66.2 c7.2 -30.2 26.7 -63.3 50.7 -86.3 5.1 -4.9 13.6 -13 18.7 -18 15 -14.4 22.5 -25.9 26.1 -40 3.8 -15 2.3 -29.6 -5 -48 -20.7 -52.2 -59.1 -90.5 -106.9 -106.7 -6.2 -2.1 -12.2 -3.8 -13.3 -3.8 -4.5 0 -25.1 37.9 -32.7 60.1 -4.7 13.8 -8.3 28.3 -10.8 43.4 -2.2 13.6 -2.5 52 -0.5 66 6.1 42.5 21.3 79.9 45.5 112.1 7.7 10.2 24.1 28.4 25.7 28.4 0.4 0 1.6 -3.3 2.5 -7.2z"/>
  <path d="M465.7 310.6 c6.6 -3.1 13.2 -9.7 16.4 -16.1 2 -4.2 2.4 -6.4 2.4 -14.5 0 -8.4 -0.3 -10.2 -2.8 -15.2 -3.5 -7.2 -11 -14 -18.5 -16.8 -8.4 -3.2 -20.6 -2.5 -28 1.5 -7.2 3.9 -13.4 10.9 -16.2 18.1 -1.9 5 -2.1 7.2 -1.7 14.9 0.5 9.8 0.1 9.9 -4.5 1 -15.4 -29.7 -2.1 -65.5 28.7 -77.1 8.4 -3.2 22.9 -4.3 31.8 -2.4 19.4 4 36 20.1 41.2 39.7 1.9 6.9 2.1 20.1 0.4 26.9 -5.4 22.5 -25.1 39.6 -48.2 41.9 l-6.2 0.7 5.2 -2.6z"/>
 </g>
</svg>